<svg width="40" height="40" viewBox="0 0 40 40" fill="none" xmlns="http://www.w3.org/2000/svg">
<path d="M0.000882187 19.9501C-0.00681524 16.6176 0.024933 13.3244 0.546368 10.521C1.0678 7.71756 2.07892 5.40381 3.74136 3.74137C5.40379 2.07894 7.71754 1.06781 10.521 0.546369C13.3244 0.0249323 16.6175 -0.00680805 19.9501 0.00088058H20.0499C23.3824 -0.00680805 26.6756 0.0249323 29.479 0.546369C32.2824 1.06781 34.5962 2.07894 36.2586 3.74137C37.9211 5.40381 38.9322 7.71756 39.4536 10.521C39.9751 13.3244 40.0068 16.6176 39.9991 19.9501V20.0499C40.0068 23.3824 39.9751 26.6756 39.4536 29.479C38.9322 32.2825 37.9211 34.5962 36.2586 36.2586C34.5962 37.9211 32.2824 38.9322 29.479 39.4536C26.6756 39.9751 23.3824 40.0068 20.0499 39.9991H19.9501C16.6175 40.0068 13.3244 39.9751 10.521 39.4536C7.71754 38.9322 5.40379 37.9211 3.74136 36.2586C2.07892 34.5962 1.0678 32.2825 0.546368 29.479C0.024933 26.6756 -0.00681524 23.3824 0.000882187 20.0499V19.9501Z" fill="url(#paint0_linear_167_6568)"/>
<defs>
<linearGradient id="paint0_linear_167_6568" x1="0" y1="0" x2="40" y2="40" gradientUnits="userSpaceOnUse">
<stop stop-color="#1582F8"/>
<stop offset="1" stop-color="#79E22D"/>
</linearGradient>
</defs>
</svg>
