<svg width="148" height="41" viewBox="0 0 148 41" fill="none" xmlns="http://www.w3.org/2000/svg">
<path d="M0.00088218 20.0111C-0.00681525 16.6785 0.0249335 13.3854 0.546369 10.5819C1.0678 7.7785 2.07893 5.46475 3.74136 3.80232C5.40379 2.13988 7.71754 1.12875 10.521 0.607313C13.3244 0.0858756 16.6175 0.0541352 19.9501 0.0618239C23.2827 0.0695125 128.053 0.00088058 128.053 0.00088058C131.385 -0.00680805 134.678 0.0249323 137.482 0.546369C140.285 1.06781 142.599 2.07894 144.261 3.74137C145.924 5.40381 146.935 7.71756 147.456 10.521C147.978 13.3244 148.01 16.6176 148.002 19.9501V20.0499C148.01 23.3824 147.978 26.6756 147.456 29.479C146.935 32.2825 145.924 34.5962 144.261 36.2586C142.599 37.9211 140.285 38.9322 137.482 39.4536C134.678 39.9751 131.385 40.0068 128.053 39.9991L19.9501 40.0601C16.6175 40.0678 13.3244 40.036 10.521 39.5146C7.71754 38.9931 5.40379 37.982 3.74136 36.3196C2.07893 34.6571 1.0678 32.3434 0.546369 29.5399C0.0249335 26.7365 -0.00681525 23.4434 0.00088218 20.1108V20.0111Z" fill="url(#paint0_linear_379_5570)"/>
<defs>
<linearGradient id="paint0_linear_379_5570" x1="141.001" y1="39.9999" x2="5.00073" y2="3.49991" gradientUnits="userSpaceOnUse">
<stop stop-color="#79E22D"/>
<stop offset="1" stop-color="#1582F8"/>
</linearGradient>
</defs>
</svg>
