<svg width="32" height="32" viewBox="0 0 32 32" fill="none" xmlns="http://www.w3.org/2000/svg">
  <defs>
    <linearGradient id="bg" x1="10%" y1="8%" x2="90%" y2="92%">
      <stop offset="0%" stop-color="#A855F7"/>
      <stop offset="50%" stop-color="#238EF2"/>
      <stop offset="100%" stop-color="#79E22D"/>
    </linearGradient>
  </defs>
  <rect width="32" height="32" fill="url(#bg)"/>
  <path d="M17.777 7.004C17.7708 8.6982 17.7903 10.2554 18.031 11.5494C18.2685 12.826 18.707 13.755 19.333 14.381C19.959 15.007 20.888 15.4455 22.1646 15.683C23.4586 15.9237 25.0158 15.9432 26.71 15.937L26.7143 18.173C25.0503 18.1767 23.2862 18.163 21.754 17.878C20.2025 17.5893 18.797 16.9695 17.7554 15.9279C16.7139 14.8864 16.0941 13.4808 15.8053 11.9294C15.5203 10.3972 15.5066 8.63309 15.5105 6.96901L17.777 7.004Z" fill="white"/>
  <path d="M14.223 24.996C14.2291 23.3017 14.2097 21.7446 13.969 20.4506C13.7315 19.1739 13.293 18.245 12.667 17.619C12.041 16.993 11.112 16.5545 9.83541 16.317C8.54141 16.0763 6.98419 16.0568 5.29 16.063L5.28571 13.827C6.94973 13.8233 8.71381 13.837 10.246 14.122C11.7975 14.4107 13.203 15.0305 14.2446 16.0721C15.2861 17.1136 15.9059 18.5192 16.1947 20.0706C16.4797 21.6028 16.4934 23.3669 16.4895 25.031L14.223 24.996Z" fill="white"/>
</svg>
